<svg xmlns="http://www.w3.org/2000/svg" viewBox="0 0 400 300" width="406" height="306" class="illustration styles_illustrationTablet__1DWOa"><g id="_356_lawyer_flatline" data-name="#356_lawyer_flatline"><path d="M274.39,270.31H94.6S84.7,186,89.36,171.07c5.56-17.74,46.54-36,65.69-44.45l.06,0c8.21-3.62,13.92-5.72,13.92-5.72l49.78,1.18a119.36,119.36,0,0,1,17,5.7c16.93,7,41,21.19,45.7,46.05C288.87,212.9,274.39,270.31,274.39,270.31Z" fill="#FF3A42"></path><path d="M204,270.82a.51.51,0,0,1-.51-.51v-81a.51.51,0,0,1,.13-.35l46.74-52.33a.52.52,0,1,1,.77.69l-46.61,52.18v80.84A.51.51,0,0,1,204,270.82Z" fill="#fff"></path><path d="M181.22,270.82a.51.51,0,0,1-.52-.51V189.47l-46.61-52.18a.51.51,0,1,1,.76-.69l46.75,52.33a.56.56,0,0,1,.13.35v81A.51.51,0,0,1,181.22,270.82Z" fill="#fff"></path><path d="M235.84,127.75l-42.65,43.32-38.14-44.45.06,0c8.21-3.62,13.92-5.72,13.92-5.72l49.78,1.18A119.36,119.36,0,0,1,235.84,127.75Z" fill="#231f20"></path><polygon points="186.72 139.91 190.69 145.97 186.72 163.53 193.19 171.07 200 163.73 195.44 145.97 200 139.91 193.19 135.79 186.72 139.91" fill="#FF3A42"></polygon><path d="M248,270.31s5.12-104.41,10.18-103.45c16.9,3.21-.05,91.24-.05,103.45Z" fill="#231f20"></path><path d="M209.55,34.19l.13.1c.84.58,3.78,4,4.52,4.05,9,.27,16.38,5.31,17.84,14.31.63,3.9.65,7.94,1.92,11.69,2.52,7.46,9.81,13.39,9.6,21.26-.1,3.71-1.93,7.2-2.12,10.91-.26,4.86,2.19,9.95,6.56,12.09H142.94c-1.93.12-3.87.13-5.8.25,5.41-2.42,7.37-9.1,7.74-15s-.14-12.21,2.73-17.4c2.63-4.74,7.71-7.77,10.26-12.55s2.22-10.65,4-15.81c5-14.69,27.2-21.21,40.84-17.23A24.15,24.15,0,0,1,209.55,34.19Z" fill="#fff"></path><path d="M137.14,109.37a.51.51,0,0,1-.5-.39.51.51,0,0,1,.29-.6c5.84-2.61,7.17-10.26,7.44-14.58.07-1.21.11-2.45.15-3.68.15-4.77.3-9.71,2.64-13.94a30.16,30.16,0,0,1,5.17-6.3,28.46,28.46,0,0,0,5.09-6.25c1.45-2.72,1.94-5.74,2.45-8.94a41.09,41.09,0,0,1,1.49-6.78C163.71,41,169.92,35.33,178.85,32c8.08-3,17.05-3.65,24-1.63a24.66,24.66,0,0,1,7,3.43h0l-.29.42.35-.39.08.07a16.23,16.23,0,0,1,1.68,1.6,16.26,16.26,0,0,0,2.6,2.36c9.84.29,16.86,5.93,18.29,14.73.2,1.3.35,2.62.49,3.9a36.08,36.08,0,0,0,1.41,7.72,38.5,38.5,0,0,0,4.43,8.25c2.62,4.07,5.33,8.28,5.19,13.19A24,24,0,0,1,243,91.34a25.23,25.23,0,0,0-1,5.2c-.25,4.89,2.33,9.66,6.28,11.6a.51.51,0,0,1,.27.58.51.51,0,0,1-.5.4H142.94c-.94.06-1.91.09-2.89.12s-1.92.06-2.88.13ZM193.4,30.05c-14.14,0-27.78,8.55-31.07,18.19a41.08,41.08,0,0,0-1.44,6.62c-.5,3.14-1,6.39-2.56,9.26a29.22,29.22,0,0,1-5.27,6.49,29.61,29.61,0,0,0-5,6.07c-2.21,4-2.37,8.82-2.51,13.47,0,1.25-.08,2.49-.15,3.72-.26,4.06-1.42,10.92-6.17,14.37l.79,0c1,0,1.92-.06,2.88-.12H246.15a13.51,13.51,0,0,1-5.23-11.6A25.81,25.81,0,0,1,242,91.07a23.57,23.57,0,0,0,1-5.48c.13-4.59-2.38-8.48-5-12.6a39.6,39.6,0,0,1-4.54-8.48A37.48,37.48,0,0,1,232,56.57c-.14-1.27-.28-2.57-.48-3.84-1.34-8.28-8-13.6-17.34-13.87-.61,0-1.46-.83-3.27-2.67a19.93,19.93,0,0,0-1.53-1.48l-.14-.1a23.74,23.74,0,0,0-6.7-3.28A32.92,32.92,0,0,0,193.4,30.05Z" fill="#231f20"></path><path d="M174.45,79.31c-1.58-9.22-16.94-11.33-16.06-.44.3,3.73,1.54,7.53,4.2,10.18s6.91,3.86,10.31,2.29" fill="#fff"></path><path d="M169.61,92.55a10.64,10.64,0,0,1-7.39-3.14c-3.14-3.13-4.1-7.44-4.35-10.5-.42-5.19,2.71-7.45,5.78-7.84,4.59-.58,10.36,2.63,11.31,8.16a.51.51,0,0,1-.42.59.5.5,0,0,1-.59-.42c-.86-5-6-7.82-10.17-7.3-3.36.42-5.18,2.94-4.88,6.73.23,2.88,1.13,6.94,4,9.85,2.7,2.69,6.71,3.59,9.74,2.19a.52.52,0,0,1,.43.94A8.41,8.41,0,0,1,169.61,92.55Z" fill="#231f20"></path><path d="M212.67,79.55c1.38-9.26,16.69-11.7,16.05-.81a16,16,0,0,1-4,10.28c-2.6,2.7-6.82,4-10.26,2.52" fill="#fff"></path><path d="M217.6,92.68a8.35,8.35,0,0,1-3.32-.67.52.52,0,0,1,.41-1c3.07,1.33,7.05.34,9.69-2.4,2.86-3,3.66-7,3.83-10,.22-3.79-1.66-6.27-5-6.62-4.13-.43-9.26,2.56-10,7.53a.52.52,0,1,1-1-.15c.83-5.55,6.53-8.88,11.13-8.4,3.07.32,6.25,2.51,6,7.71-.18,3.06-1,7.39-4.12,10.59A10.58,10.58,0,0,1,217.6,92.68Z" fill="#231f20"></path><path d="M207.6,122.7s-8.5,13.22-14.41,13.09-12.49-12.22-12.49-12.22l.37-6.47.87-15,.83-14,24.09-.27.93,11.47.28,3.72Z" fill="#fff"></path><path d="M193.27,136.31h-.09c-6.14-.14-12.66-12-12.94-12.5a.63.63,0,0,1-.06-.27L182.25,88a.52.52,0,0,1,.51-.49l24.09-.26a.5.5,0,0,1,.52.47l1.22,15.19-.47,19.8a.53.53,0,0,1-.08.27C207.69,123.52,199.39,136.31,193.27,136.31Zm-12.05-12.86c.72,1.27,6.75,11.71,12,11.82h.08c5.26,0,12.95-11.44,13.81-12.74l.47-19.6-1.18-14.66-23.13.26Zm26.38-.75h0Z" fill="#231f20"></path><path d="M208.07,103a22.6,22.6,0,0,1-7.83,8c-5.14,3.36-12.86,7.14-19.17,6.11l.87-15a51.78,51.78,0,0,0,13.9,0c4.06-.46,8.24-1,11.95-2.8Z" fill="#231f20"></path><path d="M183.3,117.77a13.67,13.67,0,0,1-2.31-.18.49.49,0,0,1-.41-.52l.87-15a.44.44,0,0,1,.18-.35.5.5,0,0,1,.39-.11,50.6,50.6,0,0,0,13.76,0c3.77-.42,8.05-.89,11.79-2.75a.5.5,0,0,1,.46,0,.47.47,0,0,1,.25.39l.29,3.72a.51.51,0,0,1-.06.27,22.89,22.89,0,0,1-8,8.23C196.68,113.91,189.71,117.77,183.3,117.77Zm-1.7-1.1c6.55.83,14.29-3.43,18.37-6.09a22,22,0,0,0,7.59-7.74l-.21-2.85c-3.73,1.67-7.82,2.13-11.46,2.53a52.68,52.68,0,0,1-13.48.12Z" fill="#231f20"></path><path d="M195.81,105.46l-2.47,0a21.18,21.18,0,0,1-21.41-20.94c-.05-4.47-.11-16.08-.16-20.55,0,0-.43-1.9,6.08-1.79,1-3.45,2.34-5.63,3.38-9.07a30.33,30.33,0,0,0,.77,6.92,2,2,0,0,0,.54,1.11,2,2,0,0,0,1.48.27l13-1.06a36.08,36.08,0,0,1,4-9.83c.32,2.77.55,6.8.87,9.56A50.08,50.08,0,0,0,209,60c-.25-.13,1.64-5.61,2-6a27.37,27.37,0,0,1,.79,5.35s3,.53,4.28.72c1.06,4.08,1.39,18.28.68,23.9C215.29,95.65,207.51,105.33,195.81,105.46Z" fill="#fff"></path><path d="M193.1,106a21.68,21.68,0,0,1-21.68-21.45c0-2.24-.06-6.26-.08-10.28s-.06-8-.08-10.24a1.26,1.26,0,0,1,.32-1c.75-.92,2.68-1.39,5.75-1.39h.14c.5-1.58,1.06-2.92,1.59-4.21A44.52,44.52,0,0,0,180.74,53a.5.5,0,0,1,.57-.36.52.52,0,0,1,.44.51,29.44,29.44,0,0,0,.76,6.81,1.52,1.52,0,0,0,.36.83,1.69,1.69,0,0,0,1.11.14l12.68-1a36.34,36.34,0,0,1,4-9.61.52.52,0,0,1,.56-.24.5.5,0,0,1,.4.44c.16,1.39.3,3.12.44,4.79.12,1.5.25,3,.39,4.34a49.3,49.3,0,0,0,6.16,0,29.94,29.94,0,0,1,2.07-5.83.53.53,0,0,1,.86.16,24,24,0,0,1,.79,5.11c.86.14,2.89.5,3.87.64a.51.51,0,0,1,.42.38c1.12,4.25,1.39,18.6.7,24.09-1.64,13-10.26,21.74-21.45,21.86l-2.47,0ZM177.33,62.71c-3.54,0-4.6.65-4.89.95s-.16.25-.16.26c0,2.3.06,6.32.09,10.34s0,8,.08,10.28A20.66,20.66,0,0,0,193.34,105l2.47,0h0c8.86-.1,18.62-6.62,20.43-21,.73-5.71.37-19.09-.58-23.37-1.4-.22-3.95-.67-3.95-.67a.51.51,0,0,1-.43-.47c-.05-.77-.19-2.48-.41-3.79a34.6,34.6,0,0,0-1.33,4.23.45.45,0,0,1,0,.23.51.51,0,0,1-.46.42,53.12,53.12,0,0,1-7.18.06.52.52,0,0,1-.48-.46c-.16-1.39-.3-3.12-.44-4.8-.08-1.06-.17-2.14-.27-3.15a35.59,35.59,0,0,0-3.14,8.28.52.52,0,0,1-.46.4l-13.05,1a2.52,2.52,0,0,1-1.85-.38,2.42,2.42,0,0,1-.71-1.39,29.59,29.59,0,0,1-.67-4.3c-.27.69-.54,1.35-.81,2a47.08,47.08,0,0,0-1.68,4.49.5.5,0,0,1-.49.36h-.52Z" fill="#231f20"></path><path d="M195,90.29a23.22,23.22,0,0,1-2.71-.14,1.3,1.3,0,0,1-1-.65C189.66,86.88,194,75,194.51,73.6a.53.53,0,0,1,.67-.3.52.52,0,0,1,.3.66c-1.83,4.92-4.35,13.35-3.33,15,.08.14.16.16.22.16a28.39,28.39,0,0,0,6-.06.5.5,0,0,1,.58.44.52.52,0,0,1-.44.58A29.89,29.89,0,0,1,195,90.29Z" fill="#231f20"></path><ellipse cx="185.58" cy="72.99" rx="1.46" ry="2.84" transform="translate(-0.79 2.05) rotate(-0.63)" fill="#231f20"></ellipse><ellipse cx="204.95" cy="72.78" rx="1.46" ry="2.84" transform="translate(-0.79 2.27) rotate(-0.63)" fill="#231f20"></ellipse><path d="M194,95.27c-4.84,0-9.72-2.31-14.53-6.88a.52.52,0,0,1,0-.72.51.51,0,0,1,.73,0c5,4.77,10.1,7,15.06,6.53,7.21-.63,11.77-6.71,11.81-6.77a.52.52,0,1,1,.83.61c-.19.27-4.87,6.51-12.54,7.19C194.93,95.25,194.48,95.27,194,95.27Z" fill="#231f20"></path><path d="M208.26,118.74s10,.72,10.56,3.32-2.35,21.62-5.93,26S194,135.81,194,135.81Z" fill="#fff"></path><path d="M211.21,149.29c-5.43,0-17.12-12.59-17.62-13.13a.52.52,0,0,1,0-.68l14.29-17.07a.5.5,0,0,1,.43-.18c1.74.12,10.42.89,11,3.72s-2.35,21.94-6,26.42a2.49,2.49,0,0,1-2,.92Zm-16.55-13.5c3.57,3.81,12.64,12.62,16.62,12.47a1.55,1.55,0,0,0,1.21-.54c3.43-4.18,6.38-22.94,5.82-25.56-.32-1.49-5.84-2.57-9.82-2.88Z" fill="#231f20"></path><path d="M179.72,118.07s-10,.24-10.69,2.81,1.32,21.71,4.69,26.24,19.47-11.33,19.47-11.33Z" fill="#fff"></path><path d="M175.51,148.45h-.27a2.57,2.57,0,0,1-1.93-1c-3.47-4.66-5.5-24-4.78-26.68s9.44-3.16,11.18-3.2a.5.5,0,0,1,.42.2l13.47,17.73a.51.51,0,0,1,0,.68C193,136.67,181,148.45,175.51,148.45Zm4-29.86c-4,.13-9.56.94-9.95,2.42-.68,2.58,1.38,21.46,4.61,25.8a1.54,1.54,0,0,0,1.18.6c3.95.27,13.45-8,17.19-11.67Z" fill="#231f20"></path><path d="M107.81,270.31s-13.44-78.59-10.59-90.4,7.33-17.1,7.33-17.1,7.33-5.7,11.4,4.89,4.48,102.61,4.48,102.61Z" fill="#231f20"></path><path d="M232,227.17a11.75,11.75,0,1,1-23.5,0Z" fill="#fff"></path><path d="M220.22,239.44A12.28,12.28,0,0,1,208,227.17a.51.51,0,0,1,.52-.51H232a.51.51,0,0,1,.52.51A12.28,12.28,0,0,1,220.22,239.44ZM209,227.69a11.24,11.24,0,0,0,22.45,0Z" fill="#231f20"></path><path d="M232,227.69a.51.51,0,0,1-.47-.31L220.22,202l-11.28,25.35A.51.51,0,1,1,208,227l11.75-26.41a.54.54,0,0,1,.94,0L232.44,227a.51.51,0,0,1-.47.73Z" fill="#231f20"></path><path d="M220.22,227.69a.52.52,0,0,1-.52-.52V200.76a.52.52,0,0,1,.52-.52.52.52,0,0,1,.52.52v26.41A.52.52,0,0,1,220.22,227.69Z" fill="#231f20"></path><path d="M177.62,227.17a11.75,11.75,0,1,1-23.5,0Z" fill="#fff"></path><path d="M165.87,239.44a12.28,12.28,0,0,1-12.27-12.27.51.51,0,0,1,.52-.51h23.5a.51.51,0,0,1,.52.51A12.28,12.28,0,0,1,165.87,239.44Zm-11.23-11.75a11.24,11.24,0,0,0,22.45,0Z" fill="#231f20"></path><path d="M177.62,227.69a.51.51,0,0,1-.47-.31L165.87,202l-11.28,25.35a.53.53,0,0,1-.68.27.54.54,0,0,1-.27-.69l11.76-26.41a.54.54,0,0,1,.94,0L178.09,227a.51.51,0,0,1-.47.73Z" fill="#231f20"></path><path d="M165.87,227.69a.52.52,0,0,1-.52-.52V200.76a.52.52,0,1,1,1,0v26.41A.51.51,0,0,1,165.87,227.69Z" fill="#231f20"></path><rect x="164.56" y="199.16" width="56.97" height="1.6" fill="#231f20"></rect><polygon points="193.04 202.33 187.21 200.49 198.88 200.49 193.04 202.33" fill="#231f20"></polygon><rect x="191.43" y="196.74" width="3.22" height="3.22" fill="#231f20"></rect><path d="M193,197.92a.51.51,0,0,1-.51-.51v-17a.52.52,0,1,1,1,0v17A.51.51,0,0,1,193,197.92Z" fill="#231f20"></path><path d="M163.66,155.79s31.7-5.7,33.87-3.16,12.55,15.68,12.25,20-19.54,15.88-23.06,11.61a49.44,49.44,0,0,1-6-10.08l-17,5.8Z" fill="#fff"></path><path d="M189.27,185.64a3.61,3.61,0,0,1-3-1.12,48.81,48.81,0,0,1-5.9-9.77l-16.59,5.65a.52.52,0,0,1-.69-.49V155.79a.52.52,0,0,1,.43-.51c5.34-1,32.1-5.62,34.35-3,.13.15,12.72,15.35,12.37,20.32-.24,3.39-10.19,10.1-17,12.27A13.63,13.63,0,0,1,189.27,185.64Zm-8.57-12a.51.51,0,0,1,.47.32,49.44,49.44,0,0,0,6,10c.8,1,2.88,1,5.85,0,7.34-2.34,16.11-8.87,16.29-11.36.27-3.73-8.93-15.83-12.13-19.58-1.22-1.44-17.64.51-32.95,3.25v23l16.35-5.57A.51.51,0,0,1,180.7,173.59Z" fill="#231f20"></path><path d="M104.55,162.81s38.07-10.18,60.47-11l1.38,31s-56.81,19-66.56,30.74c0,0-4.35-18-2.62-33.69C98.49,168.48,104.55,162.81,104.55,162.81Z" fill="#fff"></path><path d="M99.84,214.12h-.11a.54.54,0,0,1-.39-.38c0-.19-4.35-18.29-2.63-33.87,1.27-11.5,7.24-17.19,7.49-17.43a.59.59,0,0,1,.22-.12c.38-.1,38.38-10.2,60.58-11a.54.54,0,0,1,.54.5l1.38,31a.52.52,0,0,1-.35.51c-.57.19-56.79,19.13-66.33,30.58A.51.51,0,0,1,99.84,214.12Zm5-50.84c-.74.75-5.94,6.35-7.08,16.69-1.48,13.36,1.53,28.61,2.39,32.55,11-11.33,60.52-28.26,65.74-30l-1.34-30.14C143,153.26,107.28,162.62,104.82,163.28Z" fill="#231f20"></path><rect x="244.21" y="161.28" width="67.68" height="85.3" fill="#fff"></rect><path d="M311.89,247.09H244.21a.52.52,0,0,1-.52-.52V161.28a.52.52,0,0,1,.52-.52h67.68a.51.51,0,0,1,.51.52v85.29A.51.51,0,0,1,311.89,247.09Zm-67.17-1h66.65V161.79H244.72Z" fill="#231f20"></path><path d="M302,175.22h-48a.5.5,0,0,1-.5-.5.5.5,0,0,1,.5-.5h48a.51.51,0,0,1,.5.5A.5.5,0,0,1,302,175.22Z" fill="#d1d3d4"></path><path d="M302,186.87h-48a.5.5,0,0,1,0-1h48a.5.5,0,0,1,0,1Z" fill="#d1d3d4"></path><path d="M302,198.52h-48a.5.5,0,0,1-.5-.5.5.5,0,0,1,.5-.5h48a.5.5,0,0,1,.5.5A.51.51,0,0,1,302,198.52Z" fill="#d1d3d4"></path><path d="M302,210.16h-48a.5.5,0,0,1-.5-.5.5.5,0,0,1,.5-.5h48a.51.51,0,0,1,.5.5A.5.5,0,0,1,302,210.16Z" fill="#d1d3d4"></path><path d="M291.08,221.81h-37a.5.5,0,0,1,0-1h37a.5.5,0,0,1,0,1Z" fill="#d1d3d4"></path><circle cx="298.67" cy="233.59" r="5.56" fill="#FF3A42"></circle><path d="M254.46,240a.49.49,0,0,1-.36-.84,39.24,39.24,0,0,1,9.3-7.17c3-1.67,5.54-1.92,7.28-.7a1.49,1.49,0,0,1,.71,1,1.57,1.57,0,0,1-.3,1,12.68,12.68,0,0,1,1.51,0,2.55,2.55,0,0,1,2,.84,1.65,1.65,0,0,1,.22.44,7.74,7.74,0,0,1,5.62.28.5.5,0,0,1,.24.67.49.49,0,0,1-.66.24,6.76,6.76,0,0,0-5.19-.11,3.18,3.18,0,0,1-.69,1.26,4.94,4.94,0,0,1-2.95,1.54.49.49,0,0,1-.48-.23.48.48,0,0,1,0-.54,7.48,7.48,0,0,1,3.18-2.74.62.62,0,0,0-.1-.22c-.18-.25-.57-.39-1.22-.43a12.34,12.34,0,0,0-2.19.07,16.4,16.4,0,0,1-4.59,4.19,2,2,0,0,1-1.44.38,1.28,1.28,0,0,1-.88-.67,1.78,1.78,0,0,1-.12-1.41,3.19,3.19,0,0,1,1.4-1.52,13.21,13.21,0,0,1,5.08-1.9l.42-.64a1,1,0,0,0,.18-.41s0-.15-.29-.32c-1.78-1.24-4.37-.28-6.22.75a38.29,38.29,0,0,0-9.06,7A.51.51,0,0,1,254.46,240Zm14.39-5.31a12,12,0,0,0-3.59,1.54,2.3,2.3,0,0,0-1,1,.8.8,0,0,0,.05.59.34.34,0,0,0,.22.18,1.12,1.12,0,0,0,.71-.25A15.8,15.8,0,0,0,268.85,234.64Z" fill="#d1d3d4"></path><path d="M270.41,164.35c-.86,2.74,1.79,5.78,4.67,5.72s5.3-2.7,5.6-5.56a4,4,0,0,0,1.14,5,4.32,4.32,0,0,0,5.23-.31,4.71,4.71,0,0,0,1.17-5.18c.84,2.07-.29,4.27,2.14,5.93,1.65,1.13,3.28,2,3.92-.75a70,70,0,0,0,1.78-12.72,5.25,5.25,0,0,0-.41-2.81c-.8-1.45-2.69-1.84-4.35-2a50.88,50.88,0,0,0-22.44,2.95c-1.77.65-3.7,1.6-4.29,3.4a6.77,6.77,0,0,0-.17,2.46c.11,2.28-1,9.27,2.56,9.5C270.08,170.22,269.82,166.22,270.41,164.35Z" fill="#fff"></path><path d="M292.73,171.59a5.28,5.28,0,0,1-2.66-1.17,4.14,4.14,0,0,1-1.65-2.09,4.77,4.77,0,0,1-1,1.3,4.89,4.89,0,0,1-5.88.34,4.39,4.39,0,0,1-1.56-2.16,6.28,6.28,0,0,1-4.87,2.78,5.52,5.52,0,0,1-4.33-2.23,5.35,5.35,0,0,1-.49-.78c-.41,1.57-1.23,3.1-3.35,3-3.36-.22-3.18-5.27-3.07-8.29,0-.69,0-1.29,0-1.7a7.31,7.31,0,0,1,.2-2.65c.68-2,2.81-3.07,4.6-3.73a51.45,51.45,0,0,1,22.67-3c1.59.14,3.8.54,4.75,2.26a5.64,5.64,0,0,1,.47,3.09,70.19,70.19,0,0,1-1.79,12.81c-.27,1.16-.73,1.85-1.42,2.11A1.72,1.72,0,0,1,292.73,171.59ZM289,164.86a11.18,11.18,0,0,1,.15,1.38c.08,1.28.16,2.39,1.53,3.33.89.61,1.79,1.15,2.33.94s.66-.84.79-1.39a69.73,69.73,0,0,0,1.76-12.62,4.78,4.78,0,0,0-.34-2.54c-.71-1.28-2.48-1.6-3.94-1.74A50.47,50.47,0,0,0,269,155.14c-1.57.58-3.44,1.46-4,3.08a6.4,6.4,0,0,0-.15,2.28c0,.45,0,1.07,0,1.78-.11,2.82-.26,7.07,2.1,7.23,1.8.11,2.21-1.47,2.59-3.72a13.61,13.61,0,0,1,.33-1.58v0a.52.52,0,0,1,1,.31h0a3.58,3.58,0,0,0,.69,3.24,4.49,4.49,0,0,0,3.48,1.82,5.53,5.53,0,0,0,4.64-3.42,4.2,4.2,0,0,1,.53-1.89.5.5,0,0,1,.6-.23.51.51,0,0,1,.36.54,6.57,6.57,0,0,1-.47,1.83,3.53,3.53,0,0,0,1.39,2.74,3.81,3.81,0,0,0,4.59-.28,4.15,4.15,0,0,0,1.29-3.64,4.5,4.5,0,0,0-.25-.94v0h0a.53.53,0,0,1,.29-.67.52.52,0,0,1,.67.29A4.3,4.3,0,0,1,289,164.86Z" fill="#231f20"></path><path d="M190.74,78.53H177.56a2.7,2.7,0,0,1-2.69-2.69V69.72A2.69,2.69,0,0,1,177.56,67h13.18a2.69,2.69,0,0,1,2.69,2.69v6.12A2.7,2.7,0,0,1,190.74,78.53ZM177.56,68.06a1.66,1.66,0,0,0-1.66,1.66v6.12a1.66,1.66,0,0,0,1.66,1.66h13.18a1.67,1.67,0,0,0,1.66-1.66V69.72a1.66,1.66,0,0,0-1.66-1.66Z" fill="#231f20"></path><path d="M211.54,78.53H198.36a2.7,2.7,0,0,1-2.69-2.69V69.72A2.69,2.69,0,0,1,198.36,67h13.18a2.68,2.68,0,0,1,2.69,2.69v6.12A2.69,2.69,0,0,1,211.54,78.53ZM198.36,68.06a1.66,1.66,0,0,0-1.66,1.66v6.12a1.67,1.67,0,0,0,1.66,1.66h13.18a1.66,1.66,0,0,0,1.66-1.66V69.72a1.66,1.66,0,0,0-1.66-1.66Z" fill="#231f20"></path><path d="M192.92,74.3a.54.54,0,0,1-.36-.14.51.51,0,0,1,0-.73,3.6,3.6,0,0,1,2.57-1.2,2,2,0,0,1,1.51,1,.52.52,0,0,1-.16.71.51.51,0,0,1-.71-.17,1,1,0,0,0-.74-.55,2.63,2.63,0,0,0-1.72.89A.5.5,0,0,1,192.92,74.3Z" fill="#231f20"></path><path d="M171.1,74.3a.52.52,0,0,1-.48-.32.53.53,0,0,1,.29-.68l4.28-1.72a.51.51,0,0,1,.67.29.52.52,0,0,1-.28.67l-4.29,1.72A.41.41,0,0,1,171.1,74.3Z" fill="#231f20"></path><path d="M217.13,73.92l-.19,0-3.35-1.35a.52.52,0,0,1-.29-.67.51.51,0,0,1,.67-.29l3.36,1.35a.52.52,0,0,1,.28.67A.51.51,0,0,1,217.13,73.92Z" fill="#231f20"></path></g></svg>